<svg width="512" height="512" viewBox="0 0 512 512" fill="none" xmlns="http://www.w3.org/2000/svg">
<rect width="512" height="512" fill="#0A0A0A"/>
<path d="M425.852 175.696L208.338 74.2678C202.569 71.5778 195.964 71.2985 189.975 73.4915C183.986 75.6844 179.105 80.17 176.404 85.9614L74.5794 304.325C71.8788 310.116 71.5805 316.739 73.7501 322.736C75.9197 328.734 80.3795 333.614 86.1483 336.304L303.662 437.732C309.431 440.422 316.036 440.702 322.025 438.509C328.014 436.316 332.895 431.83 335.596 426.039L437.421 207.675C440.121 201.884 440.419 195.261 438.25 189.264C436.08 183.267 431.62 178.386 425.852 175.696ZM139.834 334.753L96.3308 314.468L198.155 96.1042L241.658 116.39L139.834 334.753ZM305.98 319.183L218.975 278.612C216.091 277.267 213.861 274.827 212.776 271.828C211.691 268.829 211.84 265.518 213.19 262.622C214.541 259.727 216.982 257.484 219.976 256.387C222.97 255.291 226.273 255.43 229.157 256.775L316.163 297.347C319.047 298.692 321.277 301.132 322.362 304.131C323.447 307.129 323.298 310.441 321.947 313.336C320.597 316.232 318.156 318.475 315.162 319.571C312.168 320.668 308.865 320.528 305.98 319.183ZM326.345 275.51L239.34 234.939C236.455 233.594 234.226 231.154 233.141 228.155C232.056 225.157 232.205 221.845 233.555 218.95C234.906 216.054 237.346 213.811 240.341 212.715C243.335 211.618 246.638 211.758 249.522 213.103L336.528 253.674C339.412 255.019 341.642 257.459 342.727 260.458C343.812 263.457 343.663 266.768 342.312 269.664C340.962 272.559 338.521 274.802 335.527 275.899C332.532 276.995 329.23 276.856 326.345 275.51Z" fill="white"/>
</svg>
